<?xml version="1.0" encoding="iso-8859-1"?>
<!-- Generator: Adobe Illustrator 19.0.0, SVG Export Plug-In . SVG Version: 6.00 Build 0)  -->
<svg version="1.1" id="Capa_1" xmlns="http://www.w3.org/2000/svg" xmlns:xlink="http://www.w3.org/1999/xlink" x="0px" y="0px"
	 viewBox="0 0 64 64" style="enable-background:new 0 0 64 64;" xml:space="preserve">
<g>
	<path d="M53,0H19c-2.446,0-4.479,1.768-4.908,4.092c-2.028,0.375-3.625,1.972-4,4C7.768,8.521,6,10.554,6,13v46
		c0,2.757,2.243,5,5,5h34c2.446,0,4.479-1.768,4.908-4.092c2.028-0.375,3.625-1.972,4-4C56.232,55.479,58,53.446,58,51V5
		C58,2.243,55.757,0,53,0z M45,62H11c-1.654,0-3-1.346-3-3V13c0-1.654,1.346-3,3-3h3.871H15h21v11c0,0.552,0.448,1,1,1h11v37
		C48,60.654,46.654,62,45,62z M38,11.414L46.586,20H38V11.414z M50,57.829V21c0-0.022-0.011-0.041-0.013-0.063
		c-0.006-0.088-0.023-0.173-0.051-0.257c-0.011-0.032-0.019-0.063-0.034-0.094c-0.049-0.106-0.11-0.207-0.196-0.293l-12-12
		c-0.086-0.086-0.187-0.148-0.294-0.196c-0.03-0.014-0.06-0.022-0.09-0.032c-0.086-0.03-0.173-0.047-0.264-0.053
		C37.038,8.01,37.02,8,37,8H15h-0.129h-2.7C12.584,6.836,13.696,6,15,6h30v6c0,0.552,0.448,1,1,1h6v42
		C52,56.304,51.164,57.416,50,57.829z M47,7.414L50.586,11H47V7.414z M56,51c0,1.304-0.836,2.416-2,2.829V12
		c0-0.022-0.011-0.041-0.013-0.063c-0.006-0.088-0.023-0.173-0.051-0.257c-0.011-0.032-0.019-0.064-0.034-0.094
		c-0.049-0.106-0.11-0.207-0.196-0.293l-7-7c-0.086-0.086-0.187-0.147-0.293-0.196c-0.031-0.014-0.062-0.023-0.094-0.034
		c-0.084-0.029-0.17-0.046-0.258-0.051C46.04,4.011,46.021,4,46,4H16.171C16.584,2.836,17.696,2,19,2h34c1.654,0,3,1.346,3,3V51z"/>
	<rect x="12" y="16" width="20" height="2"/>
	<path d="M31,49c7.168,0,13-5.832,13-13s-5.832-13-13-13c-7.169,0-13,5.831-13,13c0,2.506,0.725,4.841,1.958,6.828L10.686,52.1
		c-1.17,1.17-1.17,3.073,0,4.243c0.566,0.566,1.32,0.878,2.121,0.878s1.555-0.312,2.121-0.878l9.28-9.28
		C26.188,48.283,28.509,49,31,49z M31,25c6.065,0,11,4.935,11,11s-4.935,11-11,11c-2.593,0-4.975-0.907-6.857-2.414l-1.729-1.729
		C20.907,40.975,20,38.593,20,36C20,29.935,24.935,25,31,25z M13.515,54.929c-0.39,0.39-1.024,0.39-1.414,0s-0.39-1.024,0-1.415
		l9.052-9.052c0.436,0.506,0.908,0.979,1.416,1.413L13.515,54.929z"/>
	<path d="M31,45c4.962,0,9-4.038,9-9s-4.038-9-9-9s-9,4.038-9,9S26.038,45,31,45z M31,29c3.86,0,7,3.14,7,7s-3.14,7-7,7s-7-3.14-7-7
		S27.14,29,31,29z"/>
	<rect x="12" y="20" width="4" height="2"/>
	<rect x="18" y="20" width="5" height="2"/>
	<rect x="38" y="49" width="7" height="2"/>
	<rect x="42" y="45" width="3" height="2"/>
	<rect x="21" y="53" width="12" height="2"/>
	<rect x="35" y="53" width="10" height="2"/>
	<rect x="12" y="24" width="5" height="2"/>
</g>
<g>
</g>
<g>
</g>
<g>
</g>
<g>
</g>
<g>
</g>
<g>
</g>
<g>
</g>
<g>
</g>
<g>
</g>
<g>
</g>
<g>
</g>
<g>
</g>
<g>
</g>
<g>
</g>
<g>
</g>
</svg>
